<svg xmlns="http://www.w3.org/2000/svg" width="1024" height="1024" viewBox="0 0 1024 1024" fill="none">
  <title>Work</title>
  <g transform="translate(64 64)"><rect width="896" height="896" rx="203.0" fill="#f95225"/>
  <path d="M282.4111744434349 641.3717577022327 179.2 254.62824229776737H279.702086509052L318.18924603625516 426.58026555569757Q323.90994549040477 452.56744710174075 328.91425844837426 478.6532624895623Q333.91857140634374 504.7390778773838 338.7619587997799 530.726259423427Q343.605346193216 556.7134409694702 348.02824861580706 582.8978901990702H327.7824248165057Q332.8594220125219 556.7134409694702 337.99871093129315 530.726259423427Q343.1379998500644 504.7390778773838 348.6666278783032 478.6532624895623Q354.195255906542 452.56744710174075 360.31049072780513 426.58026555569757L401.6735887550208 254.62824229776737H494.3264112449791L535.5649258266849 426.58026555569757Q541.680160647948 452.56744710174075 547.2399345375643 478.6532624895623Q552.7997084271806 504.7390778773838 557.9701432073293 530.726259423427Q563.140577987478 556.7134409694702 568.2175751834942 582.8978901990702H547.5876085323712Q552.270070361274 556.7134409694702 557.0148239129317 530.726259423427Q561.7595774645895 504.7390778773838 566.9248159870923 478.6532624895623Q572.0900545095951 452.56744710174075 577.5511945574331 426.58026555569757L616.173330045438 254.62824229776737H716.8L613.464242111055 641.3717577022327H510.2316489470798L460.6352707869401 445.851537570412Q455.2053082849775 423.84095061037453 449.3652216429638 394.7287270422946Q443.52513500095006 365.61650347421465 434.7208368479394 326.24636036118443H461.1545797065506Q452.35028155353996 365.61650347421465 446.63997461468205 394.7287270422946Q440.9296676758242 423.84095061037453 435.30243749030484 445.851537570412L385.76835105292014 641.3717577022327Z" fill="#0a0a0b"/></g>
</svg>
